<svg width="704" height="704" viewBox="0 0 704 704" fill="none" xmlns="http://www.w3.org/2000/svg">
<path d="M65.43 581.873L20 668.441H255.17C277.19 668.441 295.04 651.344 295.04 630.253V581.883H172.48L351.9 225.323V36.0095L65.43 581.873Z" fill="#0A3E68"/>
<path d="M638.37 581.873L351.9 36V225.314L532.6 581.873H408.76V630.243C408.76 651.334 426.61 668.431 448.63 668.431H683.79L638.36 581.863L638.37 581.873Z" fill="#0A3E68"/>
<path d="M408.86 636.153V593.252C408.86 583.731 404.91 574.603 397.88 567.87V503.466L417.5 522.258C425.94 530.342 430.68 541.309 430.68 552.746V636.153H408.85H408.86Z" fill="#0A3E68"/>
<path d="M379.1 367.177L351.9 303.999L324.7 367.177C319.6 379.035 316.97 391.736 316.97 404.561V492.882L286.3 522.258C277.86 530.342 273.12 541.309 273.12 552.746V636.153H294.95V593.252C294.95 583.731 298.9 574.603 305.93 567.87L316.98 557.286H352.18C371.32 557.286 386.83 542.42 386.83 524.097V404.561C386.83 391.736 384.2 379.035 379.1 367.177Z" fill="#0A3E68"/>
</svg>
