<svg width="1663" height="302" viewBox="0 0 1663 302" fill="none" xmlns="http://www.w3.org/2000/svg">
<path d="M54.5101 231.06L37.8201 264.25H124.19C132.28 264.25 138.83 257.69 138.83 249.61V231.06H93.8201L159.72 94.3302V21.7402L54.5001 231.06H54.5101Z" fill="#1A1A1A"/>
<path d="M264.94 231.06L159.72 21.7402V94.3302L226.09 231.06H180.61V249.61C180.61 257.7 187.17 264.25 195.25 264.25H281.62L264.93 231.06H264.94Z" fill="#1A1A1A"/>
<path d="M180.64 251.88V235.43C180.64 231.78 179.19 228.281 176.61 225.701V201L183.82 208.211C186.92 211.311 188.66 215.521 188.66 219.901V251.88H180.64Z" fill="#1A1A1A"/>
<path d="M169.71 148.74L159.72 124.521L149.73 148.74C147.86 153.29 146.89 158.16 146.89 163.07V196.94L135.63 208.201C132.53 211.301 130.79 215.511 130.79 219.891V251.87H138.81V235.42C138.81 231.77 140.26 228.27 142.84 225.69L146.9 221.63H159.83C166.86 221.63 172.56 215.931 172.56 208.901V163.06C172.56 158.14 171.6 153.27 169.72 148.73L169.71 148.74Z" fill="#1A1A1A"/>
<path d="M471.77 204.481H395.07L378.74 248.521H351.28L419.31 70.8906H449.25L516.79 248.521H487.85L471.77 204.481ZM403.23 182.461H463.6L433.66 100.571L403.23 182.461Z" fill="#1A1A1A"/>
<path d="M553.62 248.521V70.8906H580.83V224.031H661.23V248.521H553.61H553.62Z" fill="#1A1A1A"/>
<path d="M723.82 248.521V95.3806H665.93V70.8906H808.93V95.3806H751.04V248.521H723.83H723.82Z" fill="#1A1A1A"/>
<path d="M982.07 184.69C982.07 225.51 955.85 252.23 913.29 252.23C870.73 252.23 844.76 225.51 844.76 184.69V70.8804H871.97V185.43C871.97 211.16 887.06 227.74 913.28 227.74C939.5 227.74 954.85 211.17 954.85 185.43V70.8804H982.06V184.69H982.07Z" fill="#1A1A1A"/>
<path d="M1032.27 248.521V70.8906H1098.57C1139.39 70.8906 1163.88 90.9306 1163.88 126.311C1163.88 151.801 1147.8 171.341 1120.83 177.771L1169.07 248.531H1136.41L1092.13 181.731H1059.47V248.531H1032.26L1032.27 248.521ZM1059.48 158.961H1096.84C1122.08 158.961 1136.42 147.831 1136.42 126.301C1136.42 104.771 1122.07 93.6406 1096.84 93.6406H1059.48V158.951V158.961Z" fill="#1A1A1A"/>
<path d="M1207.65 248.521V70.8906H1234.86V248.521H1207.65Z" fill="#1A1A1A"/>
<path d="M1391.96 204.481H1315.26L1298.93 248.521H1271.47L1339.5 70.8906H1369.44L1436.98 248.521H1408.04L1391.96 204.481ZM1323.42 182.461H1383.79L1353.85 100.571L1323.42 182.461Z" fill="#1A1A1A"/>
<path d="M1499.05 109.731V248.521H1473.82V70.8906H1503.51L1594.8 205.971V70.8906H1620.04V248.521H1592.58L1499.06 109.731H1499.05Z" fill="#1A1A1A"/>
</svg>
